# xmcd
#
# Track frame offsets:
#	187
#	15167
#	31715
#	44250
#	56912
#	70722
#	85862
#	98937
#	111675
#	126450
#	143857
#	157995
#	171880
#	186210
#	199700
#	215682
#
# Disc length: 3063 seconds
#
# Revision: 1
# Processed by: cddbd v1.5PL3 Copyright (c) Steve Scherf et al.
# Submitted via: CDex 1.50Beta5
#
DISCID=e20bf510
DTITLE=麻丘めぐみ - BEST SELECTION(1972/77)
DYEAR=1990
DGENRE=Pop
TTITLE0=芽ばえ
TTITLE1=悲しみよこんにちは
TTITLE2=女の子なんだもん
TTITLE3=森を駈ける恋人たち
TTITLE4=わたしの彼は左きき
TTITLE5=アルプスの少女
TTITLE6=ときめき
TTITLE7=白い部屋
TTITLE8=悲しみのシーズン
TTITLE9=雪の中の二人
TTITLE10=水色のページ
TTITLE11=恋のあやとり
TTITLE12=美しく燃えながら
TTITLE13=白い微笑
TTITLE14=夏八景
TTITLE15=ねえ
EXTD=
EXTT0=
EXTT1=
EXTT2=
EXTT3=
EXTT4=
EXTT5=
EXTT6=
EXTT7=
EXTT8=
EXTT9=
EXTT10=
EXTT11=
EXTT12=
EXTT13=
EXTT14=
EXTT15=
PLAYORDER=
